<?xml version="1.0" encoding="UTF-8"?>
<svg width="6002px" height="502px" viewBox="0 0 6002 502" version="1.1" xmlns="http://www.w3.org/2000/svg" xmlns:xlink="http://www.w3.org/1999/xlink">
    <!-- Generator: Sketch 46.2 (44496) - http://www.bohemiancoding.com/sketch -->
    <title>bg</title>
    <desc>Created with Sketch.</desc>
    <defs>
        <linearGradient x1="18.319463%" y1="49.9995142%" x2="84.1960206%" y2="49.9995142%" id="linearGradient-1">
            <stop stop-color="#EC6161" offset="0%"></stop>
            <stop stop-color="#C9AC2E" offset="51.8554516%"></stop>
            <stop stop-color="#57CFBA" offset="100%"></stop>
        </linearGradient>
    </defs>
    <g id="Page-1" stroke="none" stroke-width="1" fill="none" fill-rule="evenodd">
        <g id="Artboard" transform="translate(-95.000000, -102.000000)">
            <g id="bg" transform="translate(96.000000, 103.000000)">
                <polygon stroke="#979797" fill="url(#linearGradient-1)" points="0 0 6000 0 6000 500 0 500"></polygon>
                <g id="KT3K" transform="translate(5316.000000, 291.000000)" fill="#FFFFFF">
                    <g id="K">
                        <polygon id="Triangle" points="8.18836581e-16 0 39.3013516 0 0 52.3368661"></polygon>
                        <polygon id="Triangle" transform="translate(19.650676, 112.851368) scale(1, -1) translate(-19.650676, -112.851368) " points="8.18836581e-16 86.6829345 39.3013516 86.6829345 0 139.019801"></polygon>
                        <polygon id="Rectangle" points="66.490413 0 118.937874 0 66.0248698 69.774726 118.937874 139.549452 66.490413 139.549452 13.1118653 69.5494959"></polygon>
                    </g>
                    <g id="K" transform="translate(505.000000, 0.000000)">
                        <polygon id="Triangle" points="8.18836581e-16 0 39.3013516 0 0 52.3368661"></polygon>
                        <polygon id="Triangle" transform="translate(19.650676, 112.851368) scale(1, -1) translate(-19.650676, -112.851368) " points="8.18836581e-16 86.6829345 39.3013516 86.6829345 0 139.019801"></polygon>
                        <polygon id="Rectangle" points="66.490413 0 118.937874 0 66.0248698 69.774726 118.937874 139.549452 66.490413 139.549452 13.1118653 69.5494959"></polygon>
                    </g>
                    <g id="3" transform="translate(317.000000, 0.000000)">
                        <path d="M94.8798299,65.6977646 L94.8798299,27.936295 C95.4235384,27.9232302 95.9688495,27.9166607 96.515689,27.9166607 C133.557551,27.9166607 163.585914,58.0606198 163.585914,95.2450777 C163.585914,132.429536 133.557551,162.573495 96.515689,162.573495 C59.4738268,162.573495 29.4454645,132.429536 29.4454645,95.2450777 C29.4454645,94.6961331 29.4520088,94.1487228 29.4650234,93.6029212 L67.0816845,93.6029212 C67.0740615,93.8756803 67.0702246,94.1493901 67.0702246,94.4239995 C67.0702246,110.295414 79.8872085,123.161738 95.6977595,123.161738 C111.50831,123.161738 124.325294,110.295414 124.325294,94.4239995 C124.325294,78.5525845 111.50831,65.6862605 95.6977595,65.6862605 C95.4242032,65.6862605 95.151543,65.6901122 94.8798299,65.6977646 L94.8798299,65.6977646 Z" id="Combined-Shape"></path>
                        <rect id="Rectangle-4" x="0" y="0" width="75.2495203" height="77.1813561"></rect>
                    </g>
                    <g id="T" transform="translate(148.000000, 0.000000)">
                        <rect id="Rectangle-3" x="44.09775" y="0" width="52.264" height="141.455667"></rect>
                        <polygon id="Rectangle-3" points="26.132 0 26.132 52.6346667 0 52.6346667 0 0"></polygon>
                        <polygon id="Rectangle-3" points="140.4595 0 140.4595 52.6346667 114.3275 52.6346667 114.3275 0"></polygon>
                    </g>
                </g>
            </g>
        </g>
    </g>
</svg>