<?xml version="1.0" encoding="UTF-8"?>
<svg width="480px" height="480px" viewBox="0 0 480 480" version="1.1" xmlns="http://www.w3.org/2000/svg" xmlns:xlink="http://www.w3.org/1999/xlink">
    <title>kt3k-logo</title>
    <g id="Page-1" stroke="none" stroke-width="1" fill="none" fill-rule="evenodd">
        <g id="Artboard" transform="translate(-74.000000, -24.000000)">
            <g id="kt3k-logo" transform="translate(74.000000, 24.000000)">
                <rect id="bg" fill="#1D1818" x="0" y="0" width="480" height="480"></rect>
                <g id="kt3k" transform="translate(48.000000, 184.000000)" fill="#FFFFFF">
                    <g id="k">
                        <polygon id="Triangle" transform="translate(11.989553, 55.500000) scale(1, -1) translate(-11.989553, -55.500000) " points="-5.81201753e-14 0 23.9791063 0 23.9791063 111 -5.86197757e-14 111"></polygon>
                        <polygon id="Rectangle" points="40.5680878 39 72.5680878 39 48.2735971 68.5 72.5680878 111.323841 40.5680878 111.323841 23.9791063 69"></polygon>
                    </g>
                    <g id="k" transform="translate(310.000000, 1.000000)">
                        <polygon id="Triangle" transform="translate(11.989553, 55.500000) scale(1, -1) translate(-11.989553, -55.500000) " points="4.73783846e-13 0 23.9791063 0 23.9791063 111 1.0042303e-12 111"></polygon>
                        <polygon id="Rectangle" points="40.5680878 39 72.5680878 39 48.2735971 69 72.5680878 111.323841 40.5680878 111.323841 23.9791063 68.6619207"></polygon>
                    </g>
                    <g id="3" transform="translate(195.000000, 1.000000)">
                        <polygon id="Rectangle" points="35.6097561 38.0106441 52.6301384 24 52.6301384 44.7533105 35.6097561 58.4818463"></polygon>
                        <path d="M35.6097561,58.4818463 L35.6097561,38.0106441 C35.9056454,38.0035615 36.2024068,38 36.5,38 C56.6583934,38 73,54.3416066 73,74.5 C73,94.6583934 56.6583934,111 36.5,111 C16.3416066,111 0,94.6583934 0,74.5 C0,74.2024068 0.00356146763,73.9056454 0.0106441059,73.6097561 L20.4818463,73.6097561 C20.4776978,73.7576239 20.4756098,73.9060071 20.4756098,74.054878 C20.4756098,82.6590703 27.4506858,89.6341463 36.054878,89.6341463 C44.6590703,89.6341463 51.6341463,82.6590703 51.6341463,74.054878 C51.6341463,65.4506858 44.6590703,58.4756098 36.054878,58.4756098 C35.9060071,58.4756098 35.7576239,58.4776978 35.6097561,58.4818463 L35.6097561,58.4818463 Z" id="Combined-Shape"></path>
                        <polygon id="Rectangle-4" points="0 0 53 0 53 24 0 24"></polygon>
                    </g>
                    <g id="t" transform="translate(115.000000, 0.000000)">
                        <polygon id="Rectangle-3" points="37.6424924 40.5 37.6424924 63 0 63 0 40.5"></polygon>
                        <polygon id="Triangle" transform="translate(18.500000, 55.500000) scale(1, -1) translate(-18.500000, -55.500000) " points="37 0 37 24 24 24 24 48 24 111 7.02203884e-12 111 8.23817329e-12 48 8.23817329e-12 24 13 0"></polygon>
                    </g>
                </g>
            </g>
        </g>
    </g>
</svg>