<?xml version="1.0" encoding="UTF-8"?>
<svg width="347px" height="500px" viewBox="0 0 347 500" version="1.1" xmlns="http://www.w3.org/2000/svg" xmlns:xlink="http://www.w3.org/1999/xlink">
    <g stroke="none" stroke-width="1" fill="none" id="logo" fill-rule="evenodd">
        <g transform="translate(-327.000000, -250.000000)" fill="currentColor">
            <g transform="translate(100.000000, 100.000000)">
                <g transform="translate(226.999203, 150.000000)">
                    <path d="M69.000797,500 C110.5792,500 130.675887,463.173364 129.29086,389.520092 L129.290858,389.520092 C129.189772,384.144511 124.856285,379.810996 119.480705,379.709875 C45.8274329,378.324379 9.00079703,398.421088 9.00079703,440 C9.00079703,473.137085 35.863712,500 69.000797,500 Z"></path>
                    <rect id="Rectangle" x="153.000797" y="0" width="194" height="120" rx="10"></rect>
                    <rect id="Rectangle" x="153.000797" y="190" width="194" height="120" rx="10"></rect>
                    <path d="M10,0 L119,0 C124.522847,-1.01453063e-15 129,4.4771525 129,10 L129,300 C129,305.522847 124.522847,310 119,310 L10,310 C4.4771525,310 6.76353751e-16,305.522847 0,300 L0,10 C-6.76353751e-16,4.4771525 4.4771525,1.01453063e-15 10,0 Z"></path>
                    <path d="M163.000797,380 L337.000797,380 C342.523645,380 347.000797,384.477153 347.000797,390 L347.000797,490 C347.000797,495.522847 342.523645,500 337.000797,500 L163.000797,500 C157.47795,500 153.000797,495.522847 153.000797,490 L153.000797,390 C153.000797,384.477153 157.47795,380 163.000797,380 Z"></path>
                </g>
            </g>
        </g>
    </g>
</svg>
