<?xml version="1.0" encoding="UTF-8"?>
<svg width="134px" height="134px" viewBox="0 0 134 134" version="1.1" xmlns="http://www.w3.org/2000/svg" xmlns:xlink="http://www.w3.org/1999/xlink">
    <!-- Generator: Sketch 46.2 (44496) - http://www.bohemiancoding.com/sketch -->
    <title>logo</title>
    <desc>Created with Sketch.</desc>
    <defs>
        <linearGradient x1="0%" y1="14.7109375%" x2="100%" y2="90.1640625%" id="linearGradient-1">
            <stop stop-color="#42F8BF" stop-opacity="0.969769022" offset="0%"></stop>
            <stop stop-color="#E4EE1F" offset="100%"></stop>
        </linearGradient>
    </defs>
    <g id="Page-1" stroke="none" stroke-width="1" fill="none" fill-rule="evenodd">
        <g id="Artboard" transform="translate(-167.000000, -264.000000)">
            <g id="logo" transform="translate(167.000000, 264.000000)">
                <rect id="Rectangle" fill="#062A38" x="0" y="0" width="134" height="134" rx="8"></rect>
                <rect id="Rectangle" fill="url(#linearGradient-1)" x="17" y="17" width="100" height="100" rx="8"></rect>
                <path d="M93.2695312,91.8867188 L79.2773438,91.8867188 C76.5820178,87.7148229 73.5879071,83.5722862 70.2949219,79.4589844 C67.0019367,75.3456826 63.5507993,71.3554881 59.9414062,67.4882812 L59.0273438,67.4882812 L59.0273438,84.8554688 C59.0273438,85.6289101 59.1738267,86.3203095 59.4667969,86.9296875 C59.7597671,87.5390655 60.2929649,88.0312481 61.0664062,88.40625 C61.4414081,88.5703133 62.1386668,88.7695301 63.1582031,89.0039062 C64.1777395,89.2382824 65.0273404,89.3671874 65.7070312,89.390625 L65.7070312,91.8867188 L45,91.8867188 L45,89.390625 C45.5390652,89.3437498 46.3242136,89.273438 47.3554688,89.1796875 C48.3867239,89.085937 49.1132791,88.9453134 49.5351562,88.7578125 C50.2382848,88.4531235 50.7480453,88.0019561 51.0644531,87.4042969 C51.380861,86.8066376 51.5390625,86.0859417 51.5390625,85.2421875 L51.5390625,49.2421875 C51.5390625,48.4453085 51.4042982,47.7539092 51.1347656,47.1679688 C50.865233,46.5820283 50.3320352,46.1015644 49.5351562,45.7265625 C48.9023406,45.4218735 48.1523481,45.1523449 47.2851562,44.9179688 C46.4179644,44.6835926 45.6562533,44.542969 45,44.4960938 L45,42 L65.7070312,42 L65.7070312,44.4960938 C65.050778,44.5195314 64.2304737,44.6249991 63.2460938,44.8125 C62.2617138,45.0000009 61.5351586,45.1757804 61.0664062,45.3398438 C60.2695273,45.6210952 59.7304702,46.0898405 59.4492188,46.7460938 C59.1679673,47.402347 59.0273438,48.1171836 59.0273438,48.890625 L59.0273438,66.1171875 L59.7304688,66.1171875 C61.8398543,64.3359286 63.9140523,62.4785253 65.953125,60.5449219 C67.9921977,58.6113185 69.8437417,56.6836034 71.5078125,54.7617188 C73.3593843,52.6288956 74.7128863,50.9238345 75.5683594,49.6464844 C76.4238324,48.3691342 76.8515625,47.2382862 76.8515625,46.2539062 C76.8515625,45.902342 76.6347678,45.6152355 76.2011719,45.3925781 C75.767576,45.1699208 75.2695341,44.988282 74.7070312,44.8476562 C74.050778,44.7070305 73.4648463,44.6191408 72.9492188,44.5839844 C72.4335912,44.5488279 72.0117204,44.5195314 71.6835938,44.4960938 L71.6835938,42 L90.3867188,42 L90.3867188,44.4960938 C90.3164059,44.4960938 90.1640637,44.5078124 89.9296875,44.53125 C89.6953113,44.5546876 89.4257828,44.5781249 89.1210938,44.6015625 C88.7929671,44.6250001 88.4648454,44.6718746 88.1367188,44.7421875 C87.8085921,44.8125004 87.3867213,44.8945308 86.8710938,44.9882812 C86.0507771,45.1757822 85.2011763,45.4746073 84.3222656,45.8847656 C83.443355,46.2949239 82.7226591,46.8046845 82.1601562,47.4140625 C79.7460817,50.1562637 77.2265756,52.9921729 74.6015625,55.921875 C71.9765494,58.8515771 69.3750129,61.5234254 66.796875,63.9375 C70.3593928,67.9687702 73.306629,71.4374855 75.6386719,74.34375 C77.9707148,77.2500145 80.4492056,80.3554522 83.0742188,83.6601562 C84.0820363,84.9257876 85.0898387,85.9394493 86.0976562,86.7011719 C87.1054738,87.4628944 87.9726526,88.0312481 88.6992188,88.40625 C89.3085968,88.710939 90.0703079,88.9453117 90.984375,89.109375 C91.8984421,89.2734383 92.6601532,89.3671874 93.2695312,89.390625 L93.2695312,91.8867188 Z" id="K" fill="#062A38"></path>
            </g>
        </g>
    </g>
</svg>