<?xml version="1.0" encoding="UTF-8"?>
<svg width="139px" height="139px" viewBox="0 0 139 139" version="1.1" xmlns="http://www.w3.org/2000/svg" xmlns:xlink="http://www.w3.org/1999/xlink">
    <!-- Generator: Sketch 46.2 (44496) - http://www.bohemiancoding.com/sketch -->
    <title>logo</title>
    <desc>Created with Sketch.</desc>
    <defs></defs>
    <g id="Page-1" stroke="none" stroke-width="1" fill="none" fill-rule="evenodd">
        <g id="Artboard" transform="translate(-77.000000, -48.000000)">
            <g id="logo" transform="translate(77.000000, 48.000000)">
                <rect id="BG" fill="#1D1818" x="0" y="0" width="139" height="139"></rect>
                <g id="KT3K" transform="translate(16.402000, 55.878000)" fill="#FFFFFF">
                    <g id="K">
                        <polygon id="Triangle" points="1.388889e-16 0 6.66619156 0 0 8.896"></polygon>
                        <polygon id="Triangle" transform="translate(3.333096, 19.182000) scale(1, -1) translate(-3.333096, -19.182000) " points="1.388889e-16 14.734 6.66619156 14.734 0 23.63"></polygon>
                        <polygon id="Rectangle" points="11.2779284 0 20.1739284 0 11.1989642 11.860014 20.1739284 23.7200279 11.2779284 23.7200279 2.224 11.8217303"></polygon>
                    </g>
                    <g id="K" transform="translate(85.902000, 0.000000)">
                        <polygon id="Triangle" points="1.388889e-16 0 6.66619156 0 0 8.896"></polygon>
                        <polygon id="Triangle" transform="translate(3.333096, 19.182000) scale(1, -1) translate(-3.333096, -19.182000) " points="1.388889e-16 14.734 6.66619156 14.734 0 23.63"></polygon>
                        <polygon id="Rectangle" points="11.2779284 0 20.1739284 0 11.1989642 11.860014 20.1739284 23.7200279 11.2779284 23.7200279 2.224 11.8217303"></polygon>
                    </g>
                    <g id="3" transform="translate(53.932000, 0.000000)">
                        <path d="M16.124,11.1219475 L16.124,4.72932388 C16.2163985,4.72711215 16.3090694,4.726 16.402,4.726 C22.6969416,4.726 27.8,9.82905842 27.8,16.124 C27.8,22.4189416 22.6969416,27.522 16.402,27.522 C10.1070584,27.522 5.004,22.4189416 5.004,16.124 C5.004,16.0310694 5.00511215,15.9383985 5.00732388,15.846 L11.3999475,15.846 C11.3986521,15.8921753 11.398,15.9385115 11.398,15.985 C11.398,18.6718653 13.5761347,20.85 16.263,20.85 C18.9498653,20.85 21.128,18.6718653 21.128,15.985 C21.128,13.2981347 18.9498653,11.12 16.263,11.12 C16.2165115,11.12 16.1701753,11.1206521 16.124,11.1219475 L16.124,11.1219475 Z" id="Combined-Shape"></path>
                        <rect id="Rectangle-4" x="0" y="0" width="12.788" height="13.066"></rect>
                    </g>
                    <g id="T" transform="translate(25.298000, 0.000000)">
                        <rect id="Rectangle-3" x="7.506" y="0" width="8.896" height="23.908"></rect>
                        <polygon id="Rectangle-3" points="4.448 0 4.448 8.896 0 8.896 0 0"></polygon>
                        <polygon id="Rectangle-3" points="23.908 0 23.908 8.896 19.46 8.896 19.46 0"></polygon>
                    </g>
                </g>
            </g>
        </g>
    </g>
</svg>