<?xml version="1.0" encoding="UTF-8"?>
<svg width="440px" height="440px" viewBox="0 0 440 440" version="1.1" xmlns="http://www.w3.org/2000/svg" xmlns:xlink="http://www.w3.org/1999/xlink">
    <title>v2</title>
    <g id="Page-1" stroke="none" stroke-width="1" fill="none" fill-rule="evenodd">
        <g id="Artboard" transform="translate(-94.000000, -44.000000)">
            <g id="v2" transform="translate(94.000000, 44.000000)">
                <rect id="bg" fill="#1D1818" x="0" y="0" width="440" height="440"></rect>
                <g id="kt3k" transform="translate(31.000000, 177.000000)" fill="#FFFFFF">
                    <g id="K">
                        <polygon id="Triangle" transform="translate(11.989553, 42.500000) scale(1, -1) translate(-11.989553, -42.500000) " points="4.99600361e-16 -5.68434189e-14 23.9791063 -5.68434189e-14 23.9791063 85 0 85"></polygon>
                        <polygon id="Rectangle" points="40.5680878 0 72.5680878 0 48.2735971 42.5 72.5680878 85.3238415 40.5680878 85.3238415 23.9791063 43"></polygon>
                    </g>
                    <g id="K" transform="translate(305.000000, 0.000000)">
                        <polygon id="Triangle" transform="translate(11.989553, 42.500000) scale(1, -1) translate(-11.989553, -42.500000) " points="8.32607927e-13 0 23.9791063 0 23.9791063 85 0 85"></polygon>
                        <polygon id="Rectangle" points="40.5680878 0 72.5680878 0 48.2735971 43 72.5680878 85.3238415 40.5680878 85.3238415 23.9791063 42.6619207"></polygon>
                    </g>
                    <g id="3" transform="translate(200.000000, 0.000000)">
                        <path d="M35.6097561,33.4818463 L35.6097561,13.0106441 C35.9056454,13.0035615 36.2024068,13 36.5,13 C56.6583934,13 73,29.3416066 73,49.5 C73,69.6583934 56.6583934,86 36.5,86 C16.3416066,86 0,69.6583934 0,49.5 C0,49.2024068 0.00356146763,48.9056454 0.0106441059,48.6097561 L20.4818463,48.6097561 C20.4776978,48.7576239 20.4756098,48.9060071 20.4756098,49.054878 C20.4756098,57.6590703 27.4506858,64.6341463 36.054878,64.6341463 C44.6590703,64.6341463 51.6341463,57.6590703 51.6341463,49.054878 C51.6341463,40.4506858 44.6590703,33.4756098 36.054878,33.4756098 C35.9060071,33.4756098 35.7576239,33.4776978 35.6097561,33.4818463 L35.6097561,33.4818463 Z" id="Combined-Shape"></path>
                        <polygon id="Rectangle-4" points="0 0 82 0 0 26"></polygon>
                    </g>
                    <g id="T" transform="translate(91.000000, 0.000000)">
                        <rect id="Rectangle-3" x="27" y="0" width="32" height="86"></rect>
                        <polygon id="Rectangle-3" points="27 0 0 32 0 0"></polygon>
                        <polygon id="Rectangle-3" points="86 0 86 32 59 0"></polygon>
                    </g>
                </g>
            </g>
        </g>
    </g>
</svg>