<?xml version="1.0" encoding="UTF-8"?>
<svg width="480px" height="480px" viewBox="0 0 480 480" version="1.1" xmlns="http://www.w3.org/2000/svg" xmlns:xlink="http://www.w3.org/1999/xlink">
    <title>kt3k-logo</title>
    <g id="Page-1" stroke="none" stroke-width="1" fill="none" fill-rule="evenodd">
        <g id="Artboard" transform="translate(-74.000000, -24.000000)">
            <g id="kt3k-logo" transform="translate(74.000000, 24.000000)">
                <rect id="bg" fill="#EDEDED" x="0" y="0" width="480" height="480"></rect>
                <g id="kt3k" transform="translate(48.000000, 184.000000)" fill="#282828">
                    <polygon id="Triangle" transform="translate(11.989553, 55.500000) scale(1, -1) translate(-11.989553, -55.500000) " points="-5.81201753e-14 0 23.9791063 0 23.9791063 111 -5.86197757e-14 111"></polygon>
                    <polygon id="Rectangle" points="40.5680878 39 72.5680878 39 48.2735971 68.5 72.5680878 111.323841 40.5680878 111.323841 23.9791063 69"></polygon>
                    <polygon id="Triangle" transform="translate(321.989553, 56.500000) scale(1, -1) translate(-321.989553, -56.500000) " points="310 1 333.979106 1 333.979106 112 310 112"></polygon>
                    <polygon id="Rectangle" points="350.568088 40 382.568088 40 358.273597 70 382.568088 112.323841 350.568088 112.323841 333.979106 69.6619207"></polygon>
                    <polygon id="Rectangle" points="230.609756 39.0106441 247.630138 25 247.630138 45.7533105 230.609756 59.4818463"></polygon>
                    <path d="M230.609756,59.4818463 L230.609756,39.0106441 C230.905645,39.0035615 231.202407,39 231.5,39 C251.658393,39 268,55.3416066 268,75.5 C268,95.6583934 251.658393,112 231.5,112 C211.341607,112 195,95.6583934 195,75.5 C195,75.2024068 195.003561,74.9056454 195.010644,74.6097561 L215.481846,74.6097561 C215.477698,74.7576239 215.47561,74.9060071 215.47561,75.054878 C215.47561,83.6590703 222.450686,90.6341463 231.054878,90.6341463 C239.65907,90.6341463 246.634146,83.6590703 246.634146,75.054878 C246.634146,66.4506858 239.65907,59.4756098 231.054878,59.4756098 C230.906007,59.4756098 230.757624,59.4776978 230.609756,59.4818463 L230.609756,59.4818463 Z" id="Combined-Shape"></path>
                    <polygon id="Rectangle-4" points="195 1 248 1 248 25 195 25"></polygon>
                    <polygon id="Rectangle-3" points="152.642492 40.5 152.642492 63 115 63 115 40.5"></polygon>
                    <polygon id="Triangle" transform="translate(133.500000, 55.500000) scale(1, -1) translate(-133.500000, -55.500000) " points="152 0 152 24 139 24 139 48 139 111 115 111 115 48 115 24 128 0"></polygon>
                </g>
            </g>
        </g>
    </g>
</svg>